<?xml version="1.0" encoding="UTF-8" standalone="no"?>
<svg
   xmlns:dc="http://purl.org/dc/elements/1.1/"
   xmlns:cc="http://creativecommons.org/ns#"
   xmlns:rdf="http://www.w3.org/1999/02/22-rdf-syntax-ns#"
   xmlns:svg="http://www.w3.org/2000/svg"
   xmlns="http://www.w3.org/2000/svg"
   id="svg8"
   version="1.1"
   viewBox="0 0 26.458333 26.458333"
   height="100"
   width="100">
  <defs
     id="defs2" />
  <metadata
     id="metadata5">
    <rdf:RDF>
      <cc:Work
         rdf:about="">
        <dc:format>image/svg+xml</dc:format>
        <dc:type
           rdf:resource="http://purl.org/dc/dcmitype/StillImage" />
        <dc:title></dc:title>
      </cc:Work>
    </rdf:RDF>
  </metadata>
  <g
     transform="translate(0,-270.54167)"
     id="layer1">
    <path
       id="path10"
       d="m 14.09388,300.57318 c -0.254633,-0.002 -0.48782,0.1423 -0.599609,0.37109 l -2.757813,5.64453 -6.2128903,0.92774 c -0.5417711,0.0808 -0.756268,0.74732 -0.3632813,1.1289 l 4.515625,4.36719 -1.0371093,6.19727 c -0.090532,0.5409 0.4786036,0.95073 0.9628906,0.69336 l 5.5488283,-2.94532 5.572265,2.90235 c 0.486314,0.25317 1.051844,-0.16116 0.957031,-0.70117 l -1.085937,-6.1875 4.482422,-4.4043 c 0.391183,-0.38427 0.171868,-1.05029 -0.371094,-1.12695 l -6.220703,-0.87891 -2.802734,-5.62305 c -0.111568,-0.22272 -0.338792,-0.36388 -0.587891,-0.36523 z"
       style="color:#000000;font-style:normal;font-variant:normal;font-weight:normal;font-stretch:normal;font-size:medium;line-height:normal;font-family:sans-serif;font-variant-ligatures:normal;font-variant-position:normal;font-variant-caps:normal;font-variant-numeric:normal;font-variant-alternates:normal;font-feature-settings:normal;text-indent:0;text-align:start;text-decoration:none;text-decoration-line:none;text-decoration-style:solid;text-decoration-color:#000000;letter-spacing:normal;word-spacing:normal;text-transform:none;writing-mode:lr-tb;direction:ltr;text-orientation:mixed;dominant-baseline:auto;baseline-shift:baseline;text-anchor:start;white-space:normal;shape-padding:0;clip-rule:nonzero;display:inline;overflow:visible;visibility:visible;opacity:1;isolation:auto;mix-blend-mode:normal;color-interpolation:sRGB;color-interpolation-filters:linearRGB;solid-color:#000000;solid-opacity:1;vector-effect:none;fill:#fad520;fill-opacity:1;fill-rule:nonzero;stroke:none;stroke-width:1.32291663;stroke-linecap:butt;stroke-linejoin:round;stroke-miterlimit:4;stroke-dasharray:none;stroke-dashoffset:0;stroke-opacity:1;color-rendering:auto;image-rendering:auto;shape-rendering:auto;text-rendering:auto;enable-background:accumulate" />
    <g
       id="text28"
       style="font-style:normal;font-weight:normal;font-size:18.3816967px;line-height:125%;font-family:sans-serif;letter-spacing:0px;word-spacing:0px;fill:#f8f8f8;fill-opacity:1;stroke:none;stroke-width:0.74480206;stroke-linecap:butt;stroke-linejoin:miter;stroke-miterlimit:4;stroke-dasharray:none;stroke-opacity:1"
       transform="matrix(1.2337269,0,0,0.81055214,4.5830069,-1.7280918)"
       aria-label="!">
      <path
         d="m 29.098928,351.31127 h 1.822014 v 2.27976 h -1.822014 z m 0,-11.12056 h 1.822014 v 5.87891 l -0.179509,3.20423 h -1.454021 l -0.188484,-3.20423 z m 0.962742,-4.48927 c -1.865775,0 -2.455522,-0.2672 -3.047486,0.10598 -0.591965,0.37321 -0.884387,1.19671 -2.203689,3.2048 -1.319302,2.00809 -1.860336,2.45318 -2.105536,3.35419 -0.2452,0.90102 -0.06807,1.79867 -0.06807,4.63852 0,2.83987 -0.177126,3.73752 0.06807,4.63853 0.2452,0.90103 0.786234,1.34612 2.105536,3.3542 1.319302,2.00808 1.611723,2.83158 2.203689,3.2048 0.591965,0.37321 1.181711,0.10598 3.047486,0.10598 1.865774,0 2.45552,0.2672 3.047486,-0.10598 0.591965,-0.37322 0.884387,-1.19672 2.203688,-3.2048 1.319302,-2.00808 1.86192,-2.45318 2.10712,-3.3542 0.2452,-0.90101 0.06807,-1.79865 0.06807,-4.63853 0,-2.83985 0.177126,-3.7375 -0.06807,-4.63852 -0.2452,-0.90101 -0.787817,-1.3461 -2.10712,-3.35419 -1.319301,-2.00809 -1.611723,-2.83159 -2.203688,-3.2048 -0.591965,-0.37322 -1.181712,-0.10598 -3.047486,-0.10598 z"
         style="fill:#fa2020;fill-opacity:1;stroke:none;stroke-width:0.74480206;stroke-miterlimit:4;stroke-dasharray:none;stroke-opacity:1"
         id="path870" />
    </g>
    <g
       id="text53"
       style="font-style:normal;font-weight:normal;font-size:18.3816967px;line-height:125%;font-family:sans-serif;letter-spacing:0px;word-spacing:0px;fill:#fa2020;fill-opacity:1;stroke:none;stroke-width:0.74480206;stroke-linecap:butt;stroke-linejoin:miter;stroke-miterlimit:4;stroke-dasharray:none;stroke-opacity:1"
       transform="matrix(1.2337269,0,0,0.81055215,-23.85909,-17.91239)"
       aria-label="!">
      <path
         d="m 29.098928,376.50076 h 1.822014 v 2.27976 h -1.822014 z m 0,-11.12057 h 1.822014 v 5.87891 l -0.179509,3.20423 H 29.287412 L 29.098928,371.2591 Z M 30.06167,360.535 c -1.853866,0 -2.439066,-0.30695 -3.136141,0.13253 -0.697074,0.43949 -0.968797,1.28664 -2.279677,3.28191 -1.310881,1.99527 -1.869041,2.40885 -2.157779,3.46986 -0.288738,1.061 -0.08549,1.95413 -0.08549,4.77586 0,2.82175 -0.20325,3.71246 0.08549,4.77347 0.288738,1.061 0.846898,1.4746 2.157779,3.46985 1.31088,1.99527 1.582603,2.84484 2.279677,3.28432 0.697075,0.43949 1.282275,0.13012 3.136141,0.13012 1.853865,0 2.440648,0.30937 3.137723,-0.13012 0.697075,-0.43948 0.968798,-1.28905 2.279678,-3.28432 1.310881,-1.99525 1.867458,-2.40885 2.156196,-3.46985 0.288737,-1.06101 0.08707,-1.95172 0.08707,-4.77347 10e-7,-2.82173 0.201667,-3.71486 -0.08707,-4.77586 -0.288738,-1.06101 -0.845315,-1.47459 -2.156196,-3.46986 -1.31088,-1.99527 -1.582603,-2.84242 -2.279678,-3.28191 -0.697075,-0.43948 -1.283858,-0.13253 -3.137723,-0.13253 z m 0,1.63132 c 1.908371,0 2.511673,-0.12897 2.727698,0.007 0.216024,0.13619 0.581971,0.87617 1.931394,2.9301 1.349422,2.05394 1.83558,2.61093 1.925061,2.93974 0.08948,0.3288 0.0048,1.24709 0.0048,4.15178 0,2.9047 0.08473,3.82056 -0.0048,4.14938 -0.08948,0.3288 -0.575639,0.8858 -1.925061,2.93973 -1.349423,2.05394 -1.71537,2.7939 -1.931394,2.93011 -0.216025,0.13619 -0.819327,0.007 -2.727698,0.007 -1.908371,0 -2.51009,0.12896 -2.726115,-0.007 -0.216025,-0.13621 -0.581972,-0.87617 -1.931394,-2.93011 -1.349422,-2.05393 -1.835581,-2.61093 -1.925061,-2.93973 -0.08948,-0.32882 -0.0048,-1.24468 -0.0048,-4.14938 0,-2.90469 -0.08473,-3.82298 0.0048,-4.15178 0.08948,-0.32881 0.575639,-0.8858 1.925061,-2.93974 1.349422,-2.05393 1.715369,-2.79391 1.931394,-2.9301 0.216025,-0.1362 0.817744,-0.007 2.726115,-0.007 z"
         style="fill:#fa2020;fill-opacity:1;stroke:none;stroke-width:0.74480206;stroke-miterlimit:4;stroke-dasharray:none;stroke-opacity:1"
         id="path866" />
    </g>
    <path
       id="path883"
       d="m -8.5546875,298.32422 a 0.66152446,0.66152446 0 0 0 -0.5996094,0.37109 l -2.7597651,5.64453 -6.212891,0.92774 a 0.66152446,0.66152446 0 0 0 -0.363281,1.1289 l 4.517578,4.36719 -1.039063,6.19727 a 0.66152446,0.66152446 0 0 0 0.962891,0.69336 L -8.5,314.70898 l 5.5722656,2.90235 a 0.66152446,0.66152446 0 0 0 0.9570313,-0.70117 l -1.0859375,-6.1875 4.4824218,-4.4043 A 0.66152446,0.66152446 0 0 0 1.0546875,305.19141 L -5.1660156,304.3125 -7.96875,298.68945 a 0.66152446,0.66152446 0 0 0 -0.5859375,-0.36523 z m 0,2.1543 2.359375,4.73632 a 0.66152446,0.66152446 0 0 0 0.5,0.35938 l 5.23828125,0.74023 -3.77343755,3.70703 a 0.66152446,0.66152446 0 0 0 -0.1894531,0.58594 l 0.9140625,5.21094 -4.6914062,-2.44336 a 0.66152446,0.66152446 0 0 0 -0.6152344,0.002 l -4.673828,2.48243 0.875,-5.21876 a 0.66152446,0.66152446 0 0 0 -0.19336,-0.58593 l -3.800781,-3.67578 5.230469,-0.78321 a 0.66152446,0.66152446 0 0 0 0.498047,-0.36328 z"
       style="color:#000000;font-style:normal;font-variant:normal;font-weight:normal;font-stretch:normal;font-size:medium;line-height:normal;font-family:sans-serif;font-variant-ligatures:normal;font-variant-position:normal;font-variant-caps:normal;font-variant-numeric:normal;font-variant-alternates:normal;font-feature-settings:normal;text-indent:0;text-align:start;text-decoration:none;text-decoration-line:none;text-decoration-style:solid;text-decoration-color:#000000;letter-spacing:normal;word-spacing:normal;text-transform:none;writing-mode:lr-tb;direction:ltr;text-orientation:mixed;dominant-baseline:auto;baseline-shift:baseline;text-anchor:start;white-space:normal;shape-padding:0;clip-rule:nonzero;display:inline;overflow:visible;visibility:visible;opacity:1;isolation:auto;mix-blend-mode:normal;color-interpolation:sRGB;color-interpolation-filters:linearRGB;solid-color:#000000;solid-opacity:1;vector-effect:none;fill:#fad520;fill-opacity:1;fill-rule:nonzero;stroke:none;stroke-width:1.32291663;stroke-linecap:butt;stroke-linejoin:round;stroke-miterlimit:4;stroke-dasharray:none;stroke-dashoffset:0;stroke-opacity:1;color-rendering:auto;image-rendering:auto;shape-rendering:auto;text-rendering:auto;enable-background:accumulate" />
  </g>
</svg>
